<?xml version="1.0" encoding="UTF-8" standalone="no"?>
<svg
   xmlns:dc="http://purl.org/dc/elements/1.1/"
   xmlns:cc="http://creativecommons.org/ns#"
   xmlns:rdf="http://www.w3.org/1999/02/22-rdf-syntax-ns#"
   xmlns:svg="http://www.w3.org/2000/svg"
   xmlns="http://www.w3.org/2000/svg"
   xmlns:sodipodi="http://sodipodi.sourceforge.net/DTD/sodipodi-0.dtd"
   xmlns:inkscape="http://www.inkscape.org/namespaces/inkscape"
   sodipodi:docbase="/home/acs/imagenes/logos/departamentos"
   sodipodi:docname="logodeportes.svg"
   inkscape:version="0.46"
   sodipodi:version="0.32"
   id="svg1593"
   height="595.672"
   width="562.261"
   inkscape:output_extension="org.inkscape.output.svg.inkscape"
   inkscape:export-filename="/home/acs/Desktop/logo/logodeportes.png"
   inkscape:export-xdpi="180.00999"
   inkscape:export-ydpi="180.00999">
  <metadata
     id="metadata1792">
    <rdf:RDF>
      <cc:Work
         rdf:about="">
        <dc:format>image/svg+xml</dc:format>
        <dc:type
           rdf:resource="http://purl.org/dc/dcmitype/StillImage" />
      </cc:Work>
    </rdf:RDF>
  </metadata>
  <sodipodi:namedview
     inkscape:current-layer="svg1593"
     inkscape:window-y="104"
     inkscape:window-x="15"
     inkscape:cy="280.70419"
     inkscape:cx="281.13049"
     inkscape:zoom="0.60268067"
     inkscape:window-height="541"
     inkscape:window-width="640"
     inkscape:pageshadow="2"
     inkscape:pageopacity="0.0"
     borderopacity="1.0"
     bordercolor="#666666"
     pagecolor="#ffffff"
     id="base"
     showgrid="false" />
  <defs
     id="defs1595">
    <inkscape:perspective
       sodipodi:type="inkscape:persp3d"
       inkscape:vp_x="0 : 297.836 : 1"
       inkscape:vp_y="0 : 1000 : 0"
       inkscape:vp_z="562.26099 : 297.836 : 1"
       inkscape:persp3d-origin="281.13049 : 198.55733 : 1"
       id="perspective104" />
    <marker
       orient="auto"
       markerHeight="3"
       markerWidth="4"
       markerUnits="strokeWidth"
       refY="5"
       refX="0"
       viewBox="0 0 10 10"
       id="ArrowEnd">
      <path
         id="path1598"
         d="M 0 0 L 10 5 L 0 10 z" />
    </marker>
    <marker
       orient="auto"
       markerHeight="3"
       markerWidth="4"
       markerUnits="strokeWidth"
       refY="5"
       refX="10"
       viewBox="0 0 10 10"
       id="ArrowStart">
      <path
         id="path1601"
         d="M 10 0 L 0 5 L 10 10 z" />
    </marker>
  </defs>
  <g
     id="g1603">
    <path
       id="path1605"
       d="M 2.95444 595.672L 2.95444 595.672L 2.95444 595.672L 2.95444 595.672"
       style="stroke:none; fill:#000000" />
    <path
       id="path1607"
       d="M 115.199 513.983C 119.729 513.983 123.365 515.17 126.103 517.549C 128.841 519.922 130.212 522.971 130.212 526.69C 130.212 530.073 128.773 533.315 125.893 536.417C 125.083 537.313 123.797 538.081 122.034 538.723C 120.107 539.422 118.109 539.774 116.038 539.774L 98.5125 539.774L 98.5125 513.983L 115.199 513.983M 116.374 535.202C 118.834 535.202 120.847 534.434 122.413 532.897C 124.007 531.358 124.803 529.403 124.803 527.024C 124.803 524.483 123.964 522.44 122.288 520.901C 120.61 519.339 118.373 518.553 115.578 518.553L 103.543 518.553L 103.543 535.204L 116.374 535.204"
       style="stroke:none; fill:#000000" />
    <path
       id="path1609"
       d="M 164.85 539.774L 137.089 539.774L 137.089 513.983L 163.885 513.983L 163.885 518.553L 142.121 518.553L 142.121 524.09L 157.258 524.09L 157.258 528.659L 142.121 528.659L 142.121 535.202L 164.85 535.202L 164.85 539.774"
       style="stroke:none; fill:#000000" />
    <path
       id="path1611"
       d="M 203.804 509.413C 209.087 509.413 213.267 510.823 216.341 513.647C 219.444 516.444 220.996 520.206 220.996 524.93C 220.996 529.264 219.36 532.868 216.09 535.745C 213.042 538.43 209.268 539.774 204.767 539.774L 184.599 539.774L 184.599 509.413L 203.804 509.413M 205.187 535.202C 208.206 535.202 210.682 534.239 212.61 532.309C 214.565 530.352 215.544 527.85 215.544 524.803C 215.544 521.559 214.496 518.944 212.4 516.962C 210.331 514.975 207.605 513.985 204.223 513.985L 189.63 513.985L 189.63 535.204L 205.187 535.204"
       style="stroke:none; fill:#000000" />
    <path
       id="path1613"
       d="M 256.093 539.774L 228.333 539.774L 228.333 513.983L 255.129 513.983L 255.129 518.553L 233.367 518.553L 233.367 524.09L 248.504 524.09L 248.504 528.659L 233.367 528.659L 233.367 535.202L 256.093 535.202L 256.093 539.774"
       style="stroke:none; fill:#000000" />
    <path
       id="path1615"
       d="M 283.433 513.983C 286.173 513.983 288.355 514.725 289.975 516.206C 291.596 517.688 292.407 519.672 292.407 522.161C 292.407 524.76 291.553 526.774 289.85 528.2C 288.172 529.598 285.755 530.294 282.594 530.294L 267.624 530.294L 267.624 539.774L 262.592 539.774L 262.592 513.983L 283.433 513.983M 282.677 525.725C 285.727 525.725 287.251 524.565 287.251 522.243C 287.251 519.784 285.63 518.553 282.384 518.553L 267.624 518.553L 267.624 525.725L 282.677 525.725"
       style="stroke:none; fill:#000000" />
    <path
       id="path1617"
       d="M 330.02 526.815C 330.02 531.038 328.217 534.477 324.612 537.131C 321.535 539.397 317.691 540.526 313.079 540.526C 308.464 540.526 304.608 539.397 301.506 537.131C 297.898 534.503 296.095 531.065 296.095 526.815C 296.095 522.622 297.915 519.214 301.549 516.585C 304.735 514.266 308.579 513.104 313.079 513.104C 317.554 513.104 321.382 514.266 324.569 516.585C 328.204 519.241 330.02 522.651 330.02 526.815zM 324.78 526.815C 324.78 524.161 323.691 521.981 321.507 520.274C 319.329 518.542 316.518 517.676 313.079 517.676C 309.615 517.676 306.777 518.542 304.57 520.274C 302.385 522.008 301.296 524.188 301.296 526.815C 301.296 529.557 302.373 531.776 304.524 533.483C 306.679 535.159 309.528 535.999 313.079 535.999C 316.605 535.999 319.425 535.159 321.548 533.483C 323.703 531.776 324.78 529.557 324.78 526.815"
       style="stroke:none; fill:#000000" />
    <path
       id="path1619"
       d="M 367.632 539.774L 361.848 539.774L 355.096 530.294L 342.305 530.294L 342.305 539.774L 337.276 539.774L 337.276 513.983L 358.117 513.983C 360.855 513.983 363.037 514.725 364.657 516.206C 366.279 517.688 367.089 519.672 367.089 522.161C 367.089 526.438 364.95 529.051 360.674 530.001L 367.632 539.774M 357.361 525.725C 360.41 525.725 361.933 524.565 361.933 522.243C 361.933 519.784 360.309 518.553 357.068 518.553L 342.305 518.553L 342.305 525.725L 357.361 525.725"
       style="stroke:none; fill:#000000" />
    <path
       id="path1621"
       d="M 399.42 518.553L 387.089 518.553L 387.089 539.774L 382.058 539.774L 382.058 518.553L 369.73 518.553L 369.73 513.983L 399.42 513.983L 399.42 518.553"
       style="stroke:none; fill:#000000" />
    <path
       id="path1623"
       d="M 432.21 539.774L 404.454 539.774L 404.454 513.983L 431.246 513.983L 431.246 518.553L 409.484 518.553L 409.484 524.09L 424.621 524.09L 424.621 528.659L 409.484 528.659L 409.484 535.202L 432.21 535.202L 432.21 539.774"
       style="stroke:none; fill:#000000" />
    <path
       id="path1625"
       d="M 461.017 520.358C 457.665 518.596 454.014 517.717 450.073 517.717C 444.344 517.717 441.478 518.735 441.478 520.776C 441.478 521.981 442.554 522.76 444.706 523.126C 447.64 523.376 450.579 523.643 453.513 523.922C 457.733 524.34 460.739 525.096 462.528 526.184C 464.513 527.389 465.504 529.219 465.504 531.68C 465.504 534.446 464.263 536.585 461.772 538.094C 459.315 539.604 455.737 540.356 451.038 540.356C 444.413 540.356 439.116 538.852 435.146 535.833L 437.872 532.266C 441.421 534.755 445.784 535.999 450.954 535.999C 453.863 535.999 456.111 535.635 457.704 534.907C 459.296 534.153 460.095 533.161 460.095 531.93C 460.095 530.563 459.114 529.598 457.16 529.038C 456.071 528.731 454.377 528.52 452.086 528.409C 448.508 528.241 446.313 528.114 445.505 528.032C 442.314 527.725 439.966 527.038 438.459 525.979C 436.952 524.915 436.195 523.362 436.195 521.323C 436.195 518.862 437.394 516.919 439.801 515.495C 442.232 514.04 445.63 513.313 449.99 513.313C 455.804 513.313 460.515 514.571 464.121 517.089L 461.017 520.358"
       style="stroke:none; fill:#000000" />
    <path
       id="path1627"
       d="M 5.29428 493.434L 8.05722 489.779C 12.8092 492.688 17.93 494.145 23.4022 494.145C 26.9571 494.145 29.711 493.66 31.6641 492.678C 33.545 491.725 34.481 490.428 34.481 488.781C 34.481 486.846 33.2481 485.568 30.7911 484.92C 29.4952 484.589 26.0391 484.236 20.3873 483.867C 15.3834 483.535 11.8734 482.869 9.85752 481.861C 7.51767 480.682 6.33872 478.711 6.33872 475.947C 6.33872 473.096 7.6705 470.846 10.3255 469.197C 13.0074 467.543 16.7784 466.723 21.6473 466.723C 28.1902 466.723 33.6622 468.217 38.0811 471.205L 35.0213 474.608C 30.5213 472.313 25.9405 471.168 21.2693 471.168C 18.1644 471.168 15.7884 471.529 14.1414 472.258C 12.4945 472.986 11.6666 473.994 11.6666 475.274C 11.6666 476.623 12.5484 477.594 14.3035 478.207C 15.5633 478.656 17.6243 478.964 20.4683 479.133C 24.6622 479.412 27.4341 479.637 28.7752 479.809C 32.5731 480.303 35.3812 481.248 37.199 482.615C 39.0169 483.984 39.9258 485.928 39.9258 488.44C 39.9258 491.66 38.504 494.145 35.6509 495.909C 32.7982 497.665 28.7029 498.545 23.366 498.545C 15.6172 498.545 9.59629 496.846 5.29428 493.434"
       style="stroke:none; fill:#000000" />
    <path
       id="path1629"
       d="M 46.6402 497.835L 46.6402 472.051L 73.4332 472.051L 73.4332 476.621L 51.6712 476.621L 51.6712 482.149L 66.8091 482.149L 66.8091 486.719L 51.6712 486.719L 51.6712 493.262L 74.3961 493.262L 74.3961 497.835L 46.6402 497.835"
       style="stroke:none; fill:#000000" />
    <path
       id="path1631"
       d="M 105.473 497.835L 98.7144 488.358L 85.9256 488.358L 85.9256 497.835L 80.8948 497.835L 80.8948 472.051L 101.739 472.051C 104.474 472.051 106.661 472.787 108.281 474.274C 109.901 475.748 110.711 477.738 110.711 480.223C 110.711 484.496 108.569 487.115 104.294 488.07L 111.251 497.835L 105.473 497.835M 85.9253 483.785L 100.982 483.785C 104.033 483.785 105.554 482.625 105.554 480.303C 105.554 477.846 103.934 476.621 100.685 476.621L 85.9253 476.621L 85.9253 483.785"
       style="stroke:none; fill:#000000" />
    <path
       id="path1633"
       d="M 128.45 497.835L 114.194 472.051L 119.765 472.051L 131.339 493.479L 142.913 472.051L 148.493 472.051L 134.237 497.835L 128.45 497.835"
       style="stroke:none; fill:#000000" />
    <path
       id="path1635"
       d="M 152.768 497.835L 157.799 497.835L 157.799 472.051L 152.768 472.051L 152.768 497.835z"
       style="stroke:none; fill:#000000" />
    <path
       id="path1637"
       d="M 169.796 494.686C 166.637 492.119 165.053 488.836 165.053 484.84C 165.053 480.672 166.862 477.279 170.462 474.651C 173.594 472.356 177.437 471.205 181.991 471.205C 188.399 471.205 193.556 473.553 197.471 478.253L 192.854 479.844C 190.091 477.108 186.581 475.74 182.333 475.74C 178.67 475.74 175.745 476.586 173.567 478.297C 171.389 479.971 170.3 482.149 170.3 484.84C 170.3 487.602 171.389 489.824 173.567 491.498C 175.745 493.182 178.697 494.02 182.414 494.02C 186.715 494.02 190.225 492.606 192.935 489.779L 197.255 492.094C 193.457 496.368 188.471 498.501 182.288 498.501C 177.14 498.501 172.982 497.233 169.796 494.686"
       style="stroke:none; fill:#000000" />
    <path
       id="path1639"
       d="M 204.509 497.835L 209.549 497.835L 209.549 472.051L 204.509 472.051L 204.509 497.835z"
       style="stroke:none; fill:#000000" />
    <path
       id="path1641"
       d="M 222.203 495.19C 218.603 492.561 216.794 489.123 216.794 484.875C 216.794 480.682 218.612 477.279 222.248 474.651C 225.433 472.33 229.277 471.168 233.777 471.168C 238.258 471.168 242.083 472.328 245.269 474.651C 248.905 477.307 250.723 480.707 250.723 484.875C 250.723 489.096 248.923 492.533 245.314 495.19C 242.236 497.458 238.393 498.59 233.777 498.59C 229.169 498.59 225.308 497.458 222.203 495.19M 225.272 478.332C 223.085 480.068 221.996 482.246 221.996 484.875C 221.996 487.619 223.076 489.842 225.227 491.543C 227.378 493.217 230.231 494.065 233.777 494.065C 237.305 494.065 240.131 493.217 242.246 491.543C 244.406 489.844 245.477 487.619 245.477 484.875C 245.477 482.221 244.388 480.043 242.21 478.332C 240.032 476.604 237.215 475.74 233.777 475.74C 230.312 475.74 227.477 476.604 225.272 478.332"
       style="stroke:none; fill:#000000" />
    <path
       id="path1643"
       d="M 307.919 497.835L 307.919 473.014L 307.793 473.014L 292.025 492.805L 276.383 473.014L 276.257 473.014L 276.257 497.835L 271.226 497.835L 271.226 467.479L 277.472 467.479L 292.07 485.839L 306.704 467.479L 312.95 467.479L 312.95 497.835L 307.919 497.835"
       style="stroke:none; fill:#000000" />
    <path
       id="path1645"
       d="M 326.198 496.036C 323.489 494.299 322.13 492.074 322.13 489.365L 322.13 472.051L 327.17 472.051L 327.17 488.358C 327.17 492.164 330.491 494.065 337.142 494.065C 343.766 494.065 347.087 492.164 347.087 488.358L 347.087 472.051L 352.117 472.051L 352.117 489.365C 352.117 492.074 350.758 494.297 348.049 496.036C 345.332 497.737 341.704 498.59 337.142 498.59C 332.561 498.59 328.916 497.737 326.198 496.036"
       style="stroke:none; fill:#000000" />
    <path
       id="path1647"
       d="M 383.186 497.835L 365.663 476.324L 365.663 497.835L 360.623 497.835L 360.623 472.051L 368.138 472.051L 385.661 493.561L 385.661 472.051L 390.692 472.051L 390.692 497.835L 383.186 497.835"
       style="stroke:none; fill:#000000" />
    <path
       id="path1649"
       d="M 399.503 497.835L 404.534 497.835L 404.534 472.051L 399.503 472.051L 399.503 497.835z"
       style="stroke:none; fill:#000000" />
    <path
       id="path1651"
       d="M 416.522 494.686C 413.363 492.119 411.788 488.836 411.788 484.84C 411.788 480.672 413.588 477.279 417.197 474.651C 420.32 472.356 424.163 471.205 428.726 471.205C 435.125 471.205 440.282 473.553 444.197 478.253L 439.589 479.844C 436.817 477.108 433.307 475.74 429.059 475.74C 425.396 475.74 422.48 476.586 420.293 478.297C 418.115 479.971 417.026 482.149 417.026 484.84C 417.026 487.602 418.115 489.824 420.293 491.498C 422.48 493.182 425.423 494.02 429.14 494.02C 433.451 494.02 436.961 492.606 439.67 489.779L 443.99 492.094C 440.192 496.368 435.197 498.501 429.014 498.501C 423.875 498.501 419.708 497.233 416.522 494.686"
       style="stroke:none; fill:#000000" />
    <path
       id="path1653"
       d="M 451.244 497.835L 456.275 497.835L 456.275 472.051L 451.244 472.051L 451.244 497.835z"
       style="stroke:none; fill:#000000" />
    <path
       id="path1655"
       d="M 465.077 497.835L 465.077 472.051L 485.921 472.051C 488.657 472.051 490.844 472.787 492.464 474.274C 494.084 475.748 494.894 477.738 494.894 480.223C 494.894 482.822 494.039 484.839 492.338 486.26C 490.655 487.656 488.243 488.358 485.084 488.358L 470.108 488.358L 470.108 497.835L 465.077 497.835M 470.108 483.785L 485.165 483.785C 488.215 483.785 489.736 482.625 489.736 480.303C 489.736 477.846 488.117 476.621 484.868 476.621L 470.108 476.621L 470.108 483.785"
       style="stroke:none; fill:#000000" />
    <path
       id="path1657"
       d="M 521.984 497.835L 519.005 492.301L 501.689 492.301L 498.71 497.835L 493.175 497.835L 507.224 472.051L 513.47 472.051L 527.519 497.835L 521.984 497.835M 504.209 487.729L 516.485 487.729L 510.365 476.324L 504.209 487.729"
       style="stroke:none; fill:#000000" />
    <path
       id="path1659"
       d="M 532.136 497.835L 532.136 472.051L 537.158 472.051L 537.158 493.264L 557.084 493.264L 557.084 497.835L 532.136 497.835"
       style="stroke:none; fill:#000000" />
    <path
       id="path1661"
       d="M 294.937 182.578C 292.944 186.652 289.871 192.219 285.408 198.658C 308.795 212.125 339.787 215.938 364.111 202.684L 357.895 187.799C 340.207 197.567 311.005 194.527 294.937 182.578zM 284.884 178.832C 287.048 174.545 290.961 163.132 290.961 163.132C 290.961 163.132 297.733 171.033 299.001 172.152C 311.717 183.391 338.079 186.632 352.798 178.428C 354.214 177.639 362.57 173.1 362.854 172.789L 364.949 177.01L 377.312 206.606C 377.312 206.606 369.212 212.699 360.552 216.029C 327.777 228.633 298.028 219.119 269.979 201.594C 275.453 194.33 280.777 186.983 284.883 178.832"
       style="stroke:none; fill:#000000" />
    <path
       id="path1663"
       d="M 294.937 182.578C 292.944 186.652 289.871 192.219 285.408 198.658C 308.795 212.125 339.787 215.938 364.111 202.684L 357.895 187.799C 340.207 197.567 311.005 194.527 294.937 182.578zM 284.884 178.832C 287.048 174.545 290.961 163.132 290.961 163.132C 290.961 163.132 297.733 171.033 299.001 172.152C 311.717 183.391 338.079 186.632 352.798 178.428C 354.214 177.639 362.57 173.1 362.854 172.789L 364.949 177.01L 377.312 206.606C 377.312 206.606 369.212 212.699 360.552 216.029C 327.777 228.633 298.028 219.119 269.979 201.594C 275.453 194.33 280.777 186.983 284.883 178.832L 284.884 178.832z"
       style="stroke:#000000; stroke-width:0.86150000000000004; fill:none" />
    <path
       id="path1665"
       d="M 211.598 271.928C 207.769 242.377 216.536 211.658 236.576 189.117C 248.059 176.121 279.766 143.486 272.944 125.551C 269.857 117.664 265.231 110.529 261.963 102.757C 271.302 100.608 280.659 98.4835 289.972 96.1565L 292.391 95.5375C 292.549 96.4105 292.738 98.3815 291.637 99.5675L 291.961 99.8565L 292.177 100.225L 298.735 96.3585C 305.374 102.445 308.229 109.772 310.195 118.998L 310.618 118.908L 310.195 118.998C 318.682 158.652 294.67 180.404 272.908 206.945L 273.243 207.223L 272.908 206.945C 255.566 228.092 250.952 244.172 251.612 272.096L 211.597 271.928M 241.4 262.25L 241.805 262.25L 241.831 261.846L 241.4 261.818L 241.4 262.252M 241.4 262.25L 241.4 261.818L 241.832 261.846C 244.73 211.986 264.133 207.901 287.588 173.529C 305.344 147.527 302.977 132.022 300.61 121.051C 299.089 113.967 296.435 106.326 293.141 102.502L 293.051 102.402L 292.925 102.367C 292.889 102.367 286.616 100.693 283.088 101.502L 283.007 101.522L 282.944 101.567L 275.429 106.74L 275.105 106.957L 275.294 107.299C 278.048 112.303 283.853 123.623 283.673 129.068L 284.105 129.082C 284.105 129.084 284.105 129.086 284.105 129.086L 283.673 129.068L 283.673 129.078C 283.016 155.051 260.291 177.236 243.902 195.643L 244.224 195.924L 243.902 195.643C 228.251 213.236 220.151 236.736 220.403 260.037L 220.439 261.738L 220.871 261.729L 220.439 261.738L 220.448 262.151L 220.871 262.16L 241.4 262.25M 292.178 100.225L 291.962 99.8565L 291.638 99.5675L 292.178 100.225M 292.818 102.781L 292.818 102.779L 293.141 102.502L 292.819 102.783C 292.819 102.783 292.818 102.781 292.818 102.781M 282.944 101.565L 283.185 101.914L 283.186 101.916L 283.185 101.918L 282.944 101.567M 298.799 95.8245L 298.801 95.8245L 298.799 95.8265L 298.799 95.8245M 292.708 95.0045L 292.709 95.0045C 292.709 95.0045 292.71 95.0065 292.71 95.0085L 292.709 95.0085L 292.708 95.0045"
       style="stroke:none; fill:#000000" />
    <path
       id="path1667"
       d="M 252.056 272.961L 252.056 272.529L 252.488 272.52L 252.496 272.961L 252.056 272.961M 211.223 272.781L 210.845 272.781L 210.791 272.412C 206.804 242.507 215.633 211.375 235.928 188.551C 247.484 175.652 278.921 142.668 272.135 125.865C 269.039 117.928 264.296 110.664 260.975 102.619L 260.777 102.151L 261.272 102.033L 261.37 102.453L 261.371 102.453L 261.272 102.035C 270.781 99.8405 280.291 97.6805 289.757 95.3225L 289.756 95.3205L 292.6 94.5925L 293.032 94.4755L 293.131 94.9165C 293.145 95.0495 293.693 96.9065 293.103 98.6865L 298.576 95.4555L 298.846 95.2955L 299.089 95.5105C 306.073 101.791 309.034 109.424 311.041 118.82L 310.195 119C 308.229 109.774 305.374 102.447 298.735 96.3605L 292.177 100.227L 291.961 99.8585L 291.637 99.5685C 292.738 98.3835 292.549 96.4125 292.391 95.5395L 289.972 96.1585C 280.659 98.4845 271.302 100.61 261.963 102.758C 265.23 110.531 269.856 117.664 272.944 125.553C 279.766 143.488 248.06 176.123 236.576 189.119C 216.536 211.66 207.769 242.379 211.598 271.93L 251.613 272.096C 250.953 244.174 255.567 228.094 272.909 206.947L 273.574 207.496C 256.249 228.674 251.803 244.387 252.487 272.522L 252.056 272.529L 252.056 272.963L 211.223 272.781M 272.135 125.865L 272.54 125.703L 272.135 125.865M 298.799 95.8265L 298.802 95.8225L 298.577 95.4535L 298.799 95.8245L 298.799 95.8265M 292.709 95.0105L 293.132 94.9145L 292.709 95.0045L 292.601 94.5905L 292.708 95.0045L 292.709 95.0085M 241.4 262.25L 241.4 261.818L 241.832 261.846L 241.805 262.25L 241.4 262.25M 220.871 262.16L 220.448 262.152L 220.439 261.738L 220.871 261.729L 220.439 261.738L 220.403 260.037C 220.152 236.736 228.251 213.238 243.902 195.643L 244.55 196.209L 243.902 195.643C 260.291 177.238 283.016 155.053 283.673 129.078L 283.673 129.07L 284.105 129.088L 284.537 129.096C 283.817 155.584 260.876 177.822 244.55 196.209C 229.054 213.632 221.017 236.928 221.267 260.02L 221.294 261.299L 240.992 261.385C 243.946 211.615 263.719 207.043 286.877 173.043C 304.499 147.158 302.087 132.147 299.774 121.231C 298.294 114.303 295.648 106.783 292.579 103.17L 292.439 103.132C 292.259 103.086 291.998 103.033 291.683 102.961C 291.044 102.817 290.162 102.637 289.181 102.484C 287.243 102.174 284.905 101.979 283.365 102.322L 276.237 107.231C 279.068 112.453 284.66 123.305 284.537 129.096L 283.673 129.07C 283.853 123.625 278.048 112.303 275.295 107.299L 275.106 106.957L 275.43 106.74L 282.944 101.567L 283.007 101.522L 283.088 101.504C 286.616 100.693 292.889 102.367 292.925 102.367L 293.051 102.402L 293.141 102.502C 296.435 106.326 299.09 113.969 300.611 121.051C 302.978 132.022 305.345 147.529 287.588 173.529C 264.134 207.901 244.73 211.986 241.832 261.846L 241.4 261.82L 241.4 262.252L 220.871 262.162M 300.188 121.141L 300.611 121.051L 300.188 121.141M 292.817 102.783L 293.141 102.5L 292.818 102.779L 292.818 102.781L 292.817 102.783M 283.187 101.92L 283.185 101.914L 282.944 101.565L 283.185 101.916L 283.187 101.92M 272.909 206.945C 294.671 180.404 318.683 158.652 310.196 118.998L 310.619 118.908L 310.196 118.998L 311.042 118.818C 319.645 158.967 295.229 181.053 273.575 207.494L 272.909 206.945M 291.638 99.5675L 291.962 99.8565L 292.178 100.223L 291.638 99.5675"
       style="stroke:none; fill:#000000" />
    <path
       id="path1669"
       d="M 72.2183 273.979L 72.2183 273.555L 72.6502 273.537L 72.659 273.986L 72.2181 273.979M 31.3853 273.799L 31.0074 273.799L 30.9534 273.43L 31.3853 273.375L 72.2181 273.555L 72.2181 273.979L 31.3853 273.799M 93.4044 208.242L 93.7371 208.512C 76.4122 229.688 71.9661 245.412 72.6502 273.537L 72.2183 273.549L 72.2183 273.555C 71.5164 245.385 76.0252 229.455 93.4041 208.242M 56.0904 189.567C 67.6463 176.67 99.0833 143.686 92.3062 126.883L 92.7022 126.729C 99.5062 144.09 67.9344 176.904 56.4144 189.856C 36.2015 212.578 27.4175 243.592 31.3846 273.369L 30.9537 273.43C 26.9669 243.531 35.7955 212.401 56.0906 189.567M 41.0333 262.746L 40.9974 261.055L 41.4293 261.045L 41.4561 262.317L 61.1541 262.402C 64.108 212.643 83.8819 208.07 107.038 174.07C 124.66 148.176 122.248 133.164 119.935 122.248C 118.455 115.32 115.809 107.803 112.734 104.19L 112.592 104.158C 112.421 104.113 112.16 104.051 111.845 103.979C 111.206 103.844 110.324 103.664 109.343 103.502C 107.405 103.192 105.067 102.996 103.527 103.34L 96.3965 108.25C 99.2264 113.463 104.822 124.32 104.699 130.123C 103.979 156.61 81.0386 178.85 64.7127 197.236L 64.3887 196.947C 80.7496 178.553 103.571 156.342 104.267 130.11L 104.699 130.123L 104.267 130.11C 104.267 130.108 104.267 130.108 104.267 130.106C 104.42 124.418 98.5977 113.151 95.8348 108.119L 95.8367 108.117L 95.8367 108.117L 103.349 102.943C 106.67 102.152 112.97 103.807 112.97 103.807C 116.174 107.507 118.847 115.121 120.35 122.158C 122.699 133.111 125.084 148.365 107.39 174.313C 84.0535 208.539 64.4424 212.842 61.5626 262.838L 41.0337 262.748M 64.3882 196.947L 64.7122 197.234C 49.2144 214.658 41.1773 237.951 41.4293 261.045L 40.9974 261.049C 40.7464 237.848 48.8191 214.459 64.3882 196.947M 93.4044 208.242C 115.112 181.746 139.322 159.832 130.781 119.926L 131.204 119.836C 139.808 159.992 115.391 182.078 93.7374 208.512L 93.4046 208.242M 92.3062 126.883C 89.2012 118.943 84.4583 111.69 81.1373 103.635L 80.9393 103.168L 81.4341 103.059C 90.9471 100.863 100.46 98.7035 109.919 96.3465L 112.763 95.6085L 113.185 95.5005L 113.293 95.9325C 113.307 96.0725 113.855 97.9245 113.266 99.7015L 118.738 96.4715L 119.017 96.3185L 119.251 96.5265C 126.235 102.817 129.196 110.44 131.203 119.836L 130.78 119.926L 130.78 119.926C 128.782 110.565 125.857 103.059 118.963 96.8505L 112.123 100.873C 113.707 99.1005 112.915 96.2015 112.87 96.0315L 110.026 96.7605L 109.918 96.3465L 110.025 96.7605C 100.558 99.1175 91.0357 101.277 81.5328 103.473C 84.8357 111.475 89.5787 118.736 92.7017 126.729L 92.3057 126.882M 118.961 96.8485L 118.962 96.8465L 118.739 96.4715L 118.961 96.8485M 112.872 96.0315L 113.294 95.9325L 112.872 96.0295L 112.872 96.0315"
       style="stroke:none; fill:#000000" />
    <path
       id="path1671"
       d="M 197.615 125.723C 207.601 124.91 213.68 118.811 220.141 111.311C 238.452 81.3175 255.313 68.5595 280.511 65.0185C 319.834 59.4885 360.256 86.2525 365.876 126.264L 366.479 130.549L 330.319 143.635L 329.404 137.125C 326.454 116.156 307.037 101.543 286.061 104.49C 274.294 106.143 266.83 110.994 258.02 123.676C 253.371 129.957 252.766 131.518 245.041 142.539C 232.793 157.305 212.121 166.984 192.829 163.086L 184.352 127.188L 190.136 126.365C 192.737 125.996 195.165 125.922 197.616 125.723L 197.615 125.723zM 198.481 136.356L 197.494 136.43L 201.562 153.651C 211.752 153.871 227.126 147.324 236.565 136.061C 244.207 125.151 244.713 123.74 249.306 117.524C 259.418 102.975 269.243 96.0845 284.578 93.9285C 309.204 90.4675 332.154 105.945 338.643 129.277L 354.55 123.522C 347.672 92.2995 314.726 70.9815 281.995 75.5825C 255.59 79.2935 242.167 95.6175 228.805 117.596C 220.109 127.766 211.963 135.258 198.481 136.356"
       style="stroke:none; fill:#000000" />
    <path
       id="path1673"
       d="M 197.615 125.723C 207.601 124.91 213.68 118.811 220.141 111.311C 238.452 81.3175 255.313 68.5595 280.511 65.0185C 319.834 59.4885 360.256 86.2525 365.876 126.264L 366.479 130.549L 330.319 143.635L 329.404 137.125C 326.454 116.156 307.037 101.543 286.061 104.49C 274.294 106.143 266.83 110.994 258.02 123.676C 253.371 129.957 252.766 131.518 245.041 142.539C 232.793 157.305 212.121 166.984 192.829 163.086L 184.352 127.188L 190.136 126.365C 192.737 125.996 195.165 125.922 197.616 125.723L 197.615 125.723zM 198.481 136.356L 197.494 136.43L 201.562 153.651C 211.752 153.871 227.126 147.324 236.565 136.061C 244.207 125.151 244.713 123.74 249.306 117.524C 259.418 102.975 269.243 96.0845 284.578 93.9285C 309.204 90.4675 332.154 105.945 338.643 129.277L 354.55 123.522C 347.672 92.2995 314.726 70.9815 281.995 75.5825C 255.59 79.2935 242.167 95.6175 228.805 117.596C 220.109 127.766 211.963 135.258 198.481 136.356z"
       style="stroke:#000000; stroke-width:0.86150000000000004; fill:none" />
    <path
       id="path1675"
       d="M 253.001 4.83649C 270.824 2.33051 287.301 14.7485 289.807 32.5705C 292.313 50.3915 279.896 66.8715 262.072 69.3775C 244.249 71.8815 227.771 59.4635 225.266 41.6435C 222.761 23.8205 235.179 7.34052 253.001 4.83649zM 254.485 15.3995C 242.497 17.0825 234.145 28.1685 235.829 40.1565C 237.515 52.1435 248.599 60.4985 260.588 58.8115C 272.575 57.1295 280.928 46.0435 279.242 34.0555C 277.558 22.0655 266.475 13.7135 254.485 15.3995"
       style="stroke:none; fill:#000000" />
    <path
       id="path1677"
       d="M 253.001 4.83649C 270.824 2.33051 287.301 14.7485 289.807 32.5705C 292.313 50.3915 279.896 66.8715 262.072 69.3775C 244.249 71.8815 227.771 59.4635 225.266 41.6435C 222.761 23.8205 235.179 7.34052 253.001 4.83649zM 254.485 15.3995C 242.497 17.0825 234.145 28.1685 235.829 40.1565C 237.515 52.1435 248.599 60.4985 260.588 58.8115C 272.575 57.1295 280.928 46.0435 279.242 34.0555C 277.558 22.0655 266.475 13.7135 254.485 15.3995z"
       style="stroke:#000000; stroke-width:0.86150000000000004; fill:none" />
    <path
       id="path1679"
       d="M 115.099 183.6C 113.104 187.67 110.034 193.238 105.569 199.68C 128.958 213.145 159.947 216.959 184.272 203.701L 178.058 188.818C 160.366 198.588 131.165 195.547 115.099 183.6zM 105.048 179.854C 107.21 175.567 111.122 164.147 111.122 164.147C 111.122 164.147 117.894 172.053 119.161 173.174C 131.878 184.412 158.243 187.654 172.961 179.447C 174.374 178.658 182.733 174.119 183.016 173.811L 185.111 178.031L 197.472 207.625C 197.472 207.625 189.375 213.721 180.714 217.049C 147.939 229.652 118.193 220.141 90.1419 202.613C 95.6177 195.354 100.94 188.004 105.047 179.854"
       style="stroke:none; fill:#000000" />
    <path
       id="path1681"
       d="M 115.099 183.6C 113.104 187.67 110.034 193.238 105.569 199.68C 128.958 213.145 159.947 216.959 184.272 203.701L 178.058 188.818C 160.366 198.588 131.165 195.547 115.099 183.6zM 105.048 179.854C 107.21 175.567 111.122 164.147 111.122 164.147C 111.122 164.147 117.894 172.053 119.161 173.174C 131.878 184.412 158.243 187.654 172.961 179.447C 174.374 178.658 182.733 174.119 183.016 173.811L 185.111 178.031L 197.472 207.625C 197.472 207.625 189.375 213.721 180.714 217.049C 147.939 229.652 118.193 220.141 90.1419 202.613C 95.6177 195.354 100.94 188.004 105.047 179.854L 105.048 179.854z"
       style="stroke:#000000; stroke-width:0.86150000000000004; fill:none" />
    <path
       id="path1683"
       d="M 31.3853 273.375C 27.4163 243.594 36.2002 212.58 56.4141 189.856C 67.9339 176.904 99.5059 144.09 92.702 126.729C 89.5792 118.736 84.836 111.475 81.533 103.473C 91.0369 101.277 100.559 99.1175 110.027 96.7605L 112.871 96.0315C 112.915 96.2015 113.707 99.1005 112.124 100.873L 118.964 96.8505C 125.857 103.059 128.782 110.565 130.78 119.926C 139.321 159.832 115.111 181.746 93.4039 208.242C 76.025 229.455 71.5159 245.385 72.2181 273.555L 31.3853 273.375M 61.5623 262.836C 64.4422 212.842 84.0533 208.539 107.39 174.313C 125.084 148.365 122.699 133.11 120.35 122.156C 118.847 115.119 116.174 107.507 112.97 103.807C 112.97 103.807 106.67 102.151 103.349 102.943L 95.8345 108.117C 98.5975 113.149 104.42 124.416 104.267 130.104C 103.574 156.34 80.7505 178.551 64.3885 196.947C 48.8187 214.461 40.7457 237.852 40.9976 261.055L 41.0335 262.746L 61.5623 262.836"
       style="stroke:none; fill:#000000" />
    <path
       id="path1685"
       d="M 113.098 105.024C 113.098 105.024 100.184 105.568 95.8294 108.402C 98.5853 113.436 104.414 124.701 104.263 130.389C 103.569 156.625 80.7413 178.838 64.3814 197.231C 48.8074 214.742 40.7376 238.135 40.9925 261.336L 41.0284 263.029L 61.5543 263.121C 64.438 213.123 84.0482 208.822 107.385 174.596C 125.076 148.649 122.688 133.389 120.346 122.443C 118.838 115.404 116.301 108.715 113.098 105.022"
       style="stroke:none; fill:#00ad07" />
    <path
       id="path1687"
       d="M 113.098 105.024C 113.098 105.024 100.184 105.568 95.8294 108.402C 98.5853 113.436 104.414 124.701 104.263 130.389C 103.569 156.625 80.7413 178.838 64.3814 197.231C 48.8074 214.742 40.7376 238.135 40.9925 261.336L 41.0284 263.029L 61.5543 263.121C 64.438 213.123 84.0482 208.822 107.385 174.596C 125.076 148.649 122.688 133.389 120.346 122.443C 118.838 115.404 116.301 108.715 113.098 105.022L 113.098 105.024z"
       style="stroke:#00ad07; stroke-width:0.20130000000000001; fill:none" />
    <path
       id="path1689"
       d="M 18.6424 137.377L 17.6556 137.453L 21.7225 154.672C 31.9134 154.895 47.2874 148.348 56.7254 137.084C 64.3682 126.174 64.8733 124.762 69.4654 118.545C 79.5762 103.998 89.4034 97.1045 104.735 94.9475C 129.363 91.4865 152.315 106.965 158.804 130.301L 174.711 124.543C 167.83 93.3205 134.886 72.0045 102.155 76.6045C 75.7503 80.3155 62.3272 96.6415 48.9642 118.619C 40.2684 128.787 32.1233 136.277 18.6412 137.377"
       style="stroke:none; fill:#00ad07" />
    <path
       id="path1691"
       d="M 18.6424 137.377L 17.6556 137.453L 21.7225 154.672C 31.9134 154.895 47.2874 148.348 56.7254 137.084C 64.3682 126.174 64.8733 124.762 69.4654 118.545C 79.5762 103.998 89.4034 97.1045 104.735 94.9475C 129.363 91.4865 152.315 106.965 158.804 130.301L 174.711 124.543C 167.83 93.3205 134.886 72.0045 102.155 76.6045C 75.7503 80.3155 62.3272 96.6415 48.9642 118.619C 40.2684 128.787 32.1233 136.277 18.6412 137.377L 18.6424 137.377z"
       style="stroke:#00ad07; stroke-width:0.20130000000000001; fill:none" />
    <path
       id="path1693"
       d="M 17.7762 126.742C 27.762 125.93 33.8411 119.83 40.3021 112.332C 58.6128 82.3405 75.4739 69.5785 100.672 66.0375C 139.996 60.5105 180.415 87.2745 186.039 127.285L 186.641 131.568L 150.48 144.656L 149.565 138.145C 146.619 117.178 127.203 102.565 106.222 105.512C 94.4534 107.164 86.9922 112.016 78.1815 124.695C 73.5335 130.979 72.9275 132.539 65.2046 143.559C 52.9559 158.326 32.2828 168.007 12.9898 164.108L 4.51499 128.209L 10.297 127.387C 12.8988 127.016 15.3289 126.943 17.7769 126.742L 17.7762 126.742zM 18.6434 137.377L 17.6575 137.451L 21.7225 154.672C 31.9134 154.891 47.2894 148.346 56.7264 137.08C 64.3692 126.17 64.8743 124.762 69.4683 118.543C 79.5772 103.994 89.4031 97.1045 104.736 94.9475C 129.365 91.4865 152.316 106.965 158.805 130.299L 174.712 124.541C 167.832 93.3185 134.887 72.0025 102.156 76.6045C 75.7513 80.3155 62.3292 96.6375 48.9661 118.615C 40.2723 128.785 32.1253 136.279 18.6431 137.379"
       style="stroke:none; fill:#000000" />
    <path
       id="path1695"
       d="M 17.7762 126.742C 27.762 125.93 33.8411 119.83 40.3021 112.332C 58.6128 82.3405 75.4739 69.5785 100.672 66.0375C 139.996 60.5105 180.415 87.2745 186.039 127.285L 186.641 131.568L 150.48 144.656L 149.565 138.145C 146.619 117.178 127.203 102.565 106.222 105.512C 94.4534 107.164 86.9922 112.016 78.1815 124.695C 73.5335 130.979 72.9275 132.539 65.2046 143.559C 52.9559 158.326 32.2828 168.007 12.9898 164.108L 4.51499 128.209L 10.297 127.387C 12.8988 127.016 15.3289 126.943 17.7769 126.742L 17.7762 126.742zM 18.6434 137.377L 17.6575 137.451L 21.7225 154.672C 31.9134 154.891 47.2894 148.346 56.7264 137.08C 64.3692 126.17 64.8743 124.762 69.4683 118.543C 79.5772 103.994 89.4031 97.1045 104.736 94.9475C 129.365 91.4865 152.316 106.965 158.805 130.299L 174.712 124.541C 167.832 93.3185 134.887 72.0025 102.156 76.6045C 75.7513 80.3155 62.3292 96.6375 48.9661 118.615C 40.2723 128.785 32.1253 136.279 18.6431 137.379L 18.6434 137.377z"
       style="stroke:#000000; stroke-width:0.86150000000000004; fill:none" />
    <path
       id="path1697"
       d="M 75.5804 15.0765C 62.9854 16.8445 54.2095 28.4905 55.9795 41.0845C 57.7505 53.6805 69.3953 62.4575 81.9905 60.6885C 94.5865 58.9165 103.362 47.2705 101.591 34.6765C 99.8226 22.0785 88.1766 13.3035 75.5804 15.0765"
       style="stroke:none; fill:#00ad07" />
    <path
       id="path1699"
       d="M 75.5804 15.0765C 62.9854 16.8445 54.2095 28.4905 55.9795 41.0845C 57.7505 53.6805 69.3953 62.4575 81.9905 60.6885C 94.5865 58.9165 103.362 47.2705 101.591 34.6765C 99.8226 22.0785 88.1766 13.3035 75.5804 15.0765z"
       style="stroke:#00ad07; stroke-width:0.20130000000000001; fill:none" />
    <path
       id="path1701"
       d="M 73.1644 5.85651C 90.9852 3.35248 107.463 15.7725 109.969 33.5905C 112.473 51.4125 100.057 67.8935 82.2335 70.3995C 64.4105 72.9045 47.9317 60.4845 45.4275 42.6645C 42.9236 24.8425 55.3404 8.36151 73.1644 5.85651zM 74.6482 16.4205C 62.6573 18.1065 54.3074 29.1905 55.9903 41.1785C 57.6761 53.1685 68.7613 61.5165 80.7481 59.8345C 92.7359 58.1515 101.088 47.0655 99.4029 35.0765C 97.719 23.0865 86.6351 14.7345 74.648 16.4225"
       style="stroke:none; fill:#000000" />
    <path
       id="path1703"
       d="M 73.1644 5.85651C 90.9852 3.35248 107.463 15.7725 109.969 33.5905C 112.473 51.4125 100.057 67.8935 82.2335 70.3995C 64.4105 72.9045 47.9317 60.4845 45.4275 42.6645C 42.9236 24.8425 55.3404 8.36151 73.1644 5.85651zM 74.6482 16.4205C 62.6573 18.1065 54.3074 29.1905 55.9903 41.1785C 57.6761 53.1685 68.7613 61.5165 80.7481 59.8345C 92.7359 58.1515 101.088 47.0655 99.4029 35.0765C 97.719 23.0865 86.6351 14.7345 74.648 16.4225L 74.6482 16.4205z"
       style="stroke:#000000; stroke-width:0.86150000000000004; fill:none" />
    <path
       id="path1705"
       d="M 476.113 180.358C 474.117 184.432 468.864 192.176 464.403 198.621C 487.79 212.086 521.392 215.899 545.719 202.643L 539.503 187.76C 521.811 197.526 492.179 192.309 476.113 180.358"
       style="stroke:none; fill:#00ad07" />
    <path
       id="path1707"
       d="M 476.113 180.358C 474.117 184.432 468.864 192.176 464.403 198.621C 487.79 212.086 521.392 215.899 545.719 202.643L 539.503 187.76C 521.811 197.526 492.179 192.309 476.113 180.358z"
       style="stroke:#00ad07; stroke-width:0.20130000000000001; fill:none" />
    <path
       id="path1709"
       d="M 475.375 182.705C 473.38 186.779 470.311 192.348 465.847 198.787C 489.236 212.252 520.221 216.067 544.553 202.809L 538.337 187.928C 520.642 197.695 491.443 194.656 475.375 182.705zM 465.327 178.961C 467.488 174.668 471.4 163.257 471.4 163.257C 471.4 163.257 478.172 171.16 479.436 172.281C 492.153 183.52 518.522 186.762 533.241 178.555C 534.652 177.768 543.007 173.225 543.295 172.918L 545.389 177.135L 557.746 206.731C 557.746 206.731 549.655 212.828 540.993 216.156C 508.215 228.76 478.469 219.248 450.419 201.721C 455.896 194.459 461.216 187.108 465.327 178.961"
       style="stroke:none; fill:#000000" />
    <path
       id="path1711"
       d="M 475.375 182.705C 473.38 186.779 470.311 192.348 465.847 198.787C 489.236 212.252 520.221 216.067 544.553 202.809L 538.337 187.928C 520.642 197.695 491.443 194.656 475.375 182.705zM 465.327 178.961C 467.488 174.668 471.4 163.257 471.4 163.257C 471.4 163.257 478.172 171.16 479.436 172.281C 492.153 183.52 518.522 186.762 533.241 178.555C 534.652 177.768 543.007 173.225 543.295 172.918L 545.389 177.135L 557.746 206.731C 557.746 206.731 549.655 212.828 540.993 216.156C 508.215 228.76 478.469 219.248 450.419 201.721C 455.896 194.459 461.216 187.108 465.327 178.961z"
       style="stroke:#000000; stroke-width:0.86150000000000004; fill:none" />
    <path
       id="path1713"
       d="M 473.374 102.5C 473.374 102.5 460.46 103.049 456.106 105.879C 458.865 110.914 464.689 122.184 464.54 127.869C 463.848 154.108 441.018 176.317 424.656 194.711C 409.082 212.223 401.015 235.617 401.268 258.815L 401.317 261.858L 421.842 261.945C 424.726 211.949 446.155 208.132 469.494 173.901C 487.181 147.957 482.962 130.869 480.623 119.92C 479.116 112.883 476.579 106.197 473.374 102.5"
       style="stroke:none; fill:#00ad07" />
    <path
       id="path1715"
       d="M 473.374 102.5C 473.374 102.5 460.46 103.049 456.106 105.879C 458.865 110.914 464.689 122.184 464.54 127.869C 463.848 154.108 441.018 176.317 424.656 194.711C 409.082 212.223 401.015 235.617 401.268 258.815L 401.317 261.858L 421.842 261.945C 424.726 211.949 446.155 208.132 469.494 173.901C 487.181 147.957 482.962 130.869 480.623 119.92C 479.116 112.883 476.579 106.197 473.374 102.5z"
       style="stroke:#00ad07; stroke-width:0.20130000000000001; fill:none" />
    <path
       id="path1717"
       d="M 392.038 272.045C 388.201 242.504 396.978 211.783 417.017 189.252C 428.501 176.246 460.208 143.613 453.377 125.676C 450.289 117.789 445.671 110.654 442.404 102.889C 451.75 100.733 461.103 98.6085 470.405 96.2815L 470.413 96.2815L 470.306 95.8695L 470.404 96.2815L 470.302 95.8695C 470.303 95.8695 470.305 95.8695 470.306 95.8695L 470.413 96.2815L 472.827 95.6645C 472.988 96.5395 473.171 98.5105 472.079 99.7015L 472.618 100.35L 472.407 99.9905L 472.618 100.35L 479.187 96.4865C 485.815 102.582 488.661 109.899 490.645 119.125L 491.059 119.035L 490.645 119.125C 499.123 158.777 475.111 180.522 453.349 207.072L 453.68 207.346L 453.349 207.072C 435.999 228.219 431.392 244.299 432.053 272.221L 392.037 272.045M 421.832 262.377L 422.246 262.377L 422.264 261.973C 425.171 212.121 444.574 208.026 468.028 173.654C 485.785 147.654 483.418 132.147 481.051 121.176C 479.53 114.094 476.876 106.453 473.573 102.627L 473.492 102.529L 473.357 102.492L 473.25 102.91L 473.249 102.91L 473.357 102.492C 473.33 102.492 467.057 100.818 463.529 101.629L 463.448 101.647L 463.377 101.692L 455.871 106.865L 455.547 107.082L 455.736 107.424C 458.49 112.428 464.295 123.75 464.115 129.193L 464.547 129.207L 464.115 129.193C 463.458 155.178 440.733 177.361 424.344 195.768L 424.668 196.055L 424.344 195.768C 408.693 213.361 400.593 236.861 400.845 260.162L 400.881 261.863L 401.313 261.854L 400.881 261.863L 400.89 262.285L 401.312 262.285L 421.832 262.375L 421.836 261.943L 421.841 261.943L 421.832 262.375M 463.376 101.692L 463.626 102.039L 463.627 102.043L 463.623 102.045L 463.376 101.692M 479.238 95.9515L 479.243 95.9495C 479.244 95.9495 479.244 95.9495 479.245 95.9515L 479.24 95.9555L 479.238 95.9515"
       style="stroke:none; fill:#000000" />
    <path
       id="path1719"
       d="M 432.497 273.086L 432.497 272.654L 432.929 272.647L 432.938 273.088L 432.497 273.088M 391.655 272.906L 391.286 272.906L 391.232 272.537C 387.245 242.632 396.074 211.51 416.369 188.676C 427.925 175.779 459.362 142.795 452.576 125.983C 449.471 118.053 444.737 110.791 441.407 102.744L 441.218 102.277L 441.713 102.16C 451.226 99.9655 460.739 97.8135 470.198 95.4555L 473.042 94.7175L 473.464 94.6105L 473.572 95.0315C 473.586 95.1805 474.135 97.0315 473.544 98.8135L 479.017 95.5805L 479.296 95.4205L 479.53 95.6355C 486.514 101.926 489.475 109.549 491.482 118.945L 491.059 119.035L 491.482 118.945L 490.645 119.125C 488.661 109.901 485.815 102.582 479.187 96.4865L 472.619 100.35L 472.408 99.9905L 472.619 100.35L 472.079 99.7035C 473.172 98.5105 472.989 96.5395 472.828 95.6645L 470.414 96.2835L 470.198 95.4555L 470.405 96.2835L 470.306 95.8695L 470.414 96.2835L 470.405 96.2835C 461.103 98.6085 451.75 100.734 442.404 102.889C 445.671 110.654 450.289 117.789 453.377 125.676C 460.208 143.613 428.501 176.248 417.017 189.252C 396.978 211.783 388.201 242.504 392.038 272.045L 432.054 272.221C 431.393 244.299 436 228.219 453.35 207.072L 454.016 207.621L 453.35 207.072C 475.112 180.522 499.124 158.777 490.646 119.125L 491.483 118.943C 500.078 159.102 475.67 181.18 454.016 207.621C 436.691 228.799 432.245 244.522 432.929 272.647L 432.497 272.654L 432.497 273.086L 391.655 272.906M 452.981 125.828L 453.377 125.676L 452.981 125.828M 479.24 95.9555L 479.531 95.6335L 479.243 95.9475L 479.018 95.5785L 479.238 95.9515L 479.24 95.9555M 473.149 95.1295L 473.15 95.1295L 473.042 94.7175L 473.149 95.1295M 421.832 262.377L 421.841 261.945L 421.836 261.945L 421.832 262.377L 401.312 262.287L 400.889 262.287L 400.881 261.863L 401.312 261.856L 400.881 261.863L 400.845 260.164C 400.593 236.863 408.693 213.363 424.343 195.768L 424.991 196.344C 409.496 213.758 401.458 237.045 401.708 260.145L 401.735 261.426L 421.433 261.512C 424.387 211.752 444.151 207.17 467.318 173.17C 484.94 147.285 482.528 132.274 480.206 121.356C 478.735 114.428 476.089 106.901 473.012 103.295L 472.871 103.258C 472.691 103.221 472.439 103.158 472.124 103.086C 471.485 102.943 470.603 102.762 469.613 102.61C 467.684 102.301 465.347 102.104 463.807 102.447L 456.679 107.356C 459.509 112.578 465.101 123.432 464.978 129.223L 464.115 129.195C 464.295 123.752 458.49 112.43 455.736 107.426L 455.547 107.084L 455.871 106.867L 463.377 101.693L 463.448 101.649L 463.529 101.629C 467.057 100.82 473.33 102.494 473.357 102.494L 473.249 102.912L 473.25 102.912L 473.357 102.494L 473.492 102.531L 473.573 102.629C 476.876 106.455 479.53 114.096 481.051 121.178C 483.418 132.149 485.785 147.656 468.028 173.656C 444.575 208.027 425.171 212.123 422.264 261.975L 422.246 262.379L 421.832 262.379M 480.629 121.266L 481.052 121.176L 480.629 121.266M 463.63 102.057L 463.626 102.039L 463.376 101.69L 463.623 102.045L 463.63 102.057M 424.343 195.768C 440.732 177.363 463.457 155.178 464.114 129.195L 464.978 129.223C 464.249 155.717 441.317 177.947 424.991 196.344L 424.343 195.768"
       style="stroke:none; fill:#000000" />
    <path
       id="path1721"
       d="M 378.922 136.483L 377.932 136.559L 381.998 154.377C 392.192 154.604 407.564 147.832 417.005 136.18C 424.646 124.891 425.152 123.432 429.746 117C 439.853 101.947 449.678 96.2815 465.012 94.0535C 489.64 90.4715 512.594 105.022 519.081 129.164L 534.992 123.205C 528.11 90.9015 495.164 70.3135 462.433 75.0725C 436.029 78.9125 422.607 94.3345 409.242 117.074C 400.544 127.596 392.401 135.348 378.922 136.483"
       style="stroke:none; fill:#00ad07" />
    <path
       id="path1723"
       d="M 378.922 136.483L 377.932 136.559L 381.998 154.377C 392.192 154.604 407.564 147.832 417.005 136.18C 424.646 124.891 425.152 123.432 429.746 117C 439.853 101.947 449.678 96.2815 465.012 94.0535C 489.64 90.4715 512.594 105.022 519.081 129.164L 534.992 123.205C 528.11 90.9015 495.164 70.3135 462.433 75.0725C 436.029 78.9125 422.607 94.3345 409.242 117.074C 400.544 127.596 392.401 135.348 378.922 136.483z"
       style="stroke:#00ad07; stroke-width:0.20130000000000001; fill:none" />
    <path
       id="path1725"
       d="M 378.051 125.852C 388.038 125.037 394.12 118.94 400.579 111.44C 418.891 81.4455 435.75 68.6865 460.95 65.1435C 500.274 59.6175 540.691 86.3815 546.316 126.391L 546.918 130.678L 510.757 143.764L 509.843 137.25C 506.896 116.281 487.478 101.668 466.497 104.617C 454.73 106.272 447.268 111.123 438.459 123.803C 433.812 130.086 433.203 131.647 425.48 142.666C 413.228 157.43 392.56 167.113 373.268 163.215L 364.787 127.313L 370.573 126.49C 373.177 126.123 375.606 126.049 378.051 125.852zM 378.922 136.483L 377.932 136.559L 381.998 153.776C 392.191 153.998 407.564 147.453 417.005 136.188C 424.646 125.276 425.152 123.865 429.745 117.649C 439.856 103.102 449.678 96.2075 465.012 94.0535C 489.64 90.5925 512.593 106.07 519.08 129.406L 534.991 123.647C 528.11 92.4265 495.164 71.1085 462.433 75.7075C 436.029 79.4185 422.607 95.7445 409.242 117.725C 400.544 127.889 392.401 135.383 378.922 136.483"
       style="stroke:none; fill:#000000" />
    <path
       id="path1727"
       d="M 378.051 125.852C 388.038 125.037 394.12 118.94 400.579 111.44C 418.891 81.4455 435.75 68.6865 460.95 65.1435C 500.274 59.6175 540.691 86.3815 546.316 126.391L 546.918 130.678L 510.757 143.764L 509.843 137.25C 506.896 116.281 487.478 101.668 466.497 104.617C 454.73 106.272 447.268 111.123 438.459 123.803C 433.812 130.086 433.203 131.647 425.48 142.666C 413.228 157.43 392.56 167.113 373.268 163.215L 364.787 127.313L 370.573 126.49C 373.177 126.123 375.606 126.049 378.051 125.852zM 378.922 136.483L 377.932 136.559L 381.998 153.776C 392.191 153.998 407.564 147.453 417.005 136.188C 424.646 125.276 425.152 123.865 429.745 117.649C 439.856 103.102 449.678 96.2075 465.012 94.0535C 489.64 90.5925 512.593 106.07 519.08 129.406L 534.991 123.647C 528.11 92.4265 495.164 71.1085 462.433 75.7075C 436.029 79.4185 422.607 95.7445 409.242 117.725C 400.544 127.889 392.401 135.383 378.922 136.483z"
       style="stroke:#000000; stroke-width:0.86150000000000004; fill:none" />
    <path
       id="path1729"
       d="M 435.314 14.1805C 423.069 15.9925 414.536 27.9065 416.257 40.7975C 417.977 53.6885 429.3 62.6665 441.544 60.8545C 453.792 59.0415 462.328 47.1255 460.604 34.2405C 458.881 21.3505 447.558 12.3695 435.314 14.1805"
       style="stroke:none; fill:#00ad07" />
    <path
       id="path1731"
       d="M 435.314 14.1805C 423.069 15.9925 414.536 27.9065 416.257 40.7975C 417.977 53.6885 429.3 62.6665 441.544 60.8545C 453.792 59.0415 462.328 47.1255 460.604 34.2405C 458.881 21.3505 447.558 12.3695 435.314 14.1805z"
       style="stroke:#00ad07; stroke-width:0.20130000000000001; fill:none" />
    <path
       id="path1733"
       d="M 433.439 4.9635C 451.261 2.45746 467.741 14.8735 470.246 32.6975C 472.75 50.5185 460.332 66.9985 442.511 69.5045C 424.69 72.0065 408.209 59.5905 405.704 41.7705C 403.199 23.9455 415.618 7.46948 433.439 4.9635zM 434.926 15.5275C 422.937 17.2115 414.583 28.2955 416.268 40.2815C 417.955 52.2705 429.037 60.6235 441.027 58.9405C 453.013 57.2545 461.368 46.1725 459.681 34.1845C 457.995 22.1935 446.913 13.8425 434.926 15.5275"
       style="stroke:none; fill:#000000" />
    <path
       id="path1735"
       d="M 433.439 4.9635C 451.261 2.45746 467.741 14.8735 470.246 32.6975C 472.75 50.5185 460.332 66.9985 442.511 69.5045C 424.69 72.0065 408.209 59.5905 405.704 41.7705C 403.199 23.9455 415.618 7.46948 433.439 4.9635zM 434.926 15.5275C 422.937 17.2115 414.583 28.2955 416.268 40.2815C 417.955 52.2705 429.037 60.6235 441.027 58.9405C 453.013 57.2545 461.368 46.1725 459.681 34.1845C 457.995 22.1935 446.913 13.8425 434.926 15.5275z"
       style="stroke:#000000; stroke-width:0.86150000000000004; fill:none" />
    <path
       id="path1737"
       d="M 294.925 181.233C 292.932 185.305 289.862 190.873 285.396 197.315C 308.784 210.779 339.775 214.592 364.101 201.336L 357.883 186.453C 340.196 196.221 310.991 193.182 294.925 181.233"
       style="stroke:none; fill:#ffffff" />
    <path
       id="path1739"
       d="M 198.47 135.012L 197.483 135.084L 201.551 152.303C 211.741 152.524 227.115 145.979 236.554 134.715C 244.196 123.803 244.702 122.393 249.294 116.178C 259.405 101.629 269.232 94.7345 284.566 92.5825C 309.193 89.1195 332.142 104.6 338.631 127.934L 354.54 122.174C 347.658 90.9535 314.715 69.6375 281.984 74.2345C 255.578 77.9455 242.156 94.2725 228.793 116.25C 220.097 126.42 211.952 133.91 198.47 135.012"
       style="stroke:none; fill:#ffffff" />
    <path
       id="path1741"
       d="M 254.474 14.0555C 242.486 15.7385 234.134 26.8245 235.818 38.8135C 237.503 50.7975 248.587 59.1515 260.575 57.4675C 272.564 55.7795 280.916 44.6995 279.231 32.7095C 277.547 20.7215 266.461 12.3695 254.474 14.0555"
       style="stroke:none; fill:#ffffff" />
    <path
       id="path1743"
       d="M 292.935 102.375C 292.935 102.375 280.022 102.922 275.667 105.754C 278.423 110.789 284.251 122.055 284.1 127.744C 283.406 153.979 260.578 176.188 244.218 194.584C 228.643 212.096 220.576 235.488 220.829 258.69L 220.865 260.385L 241.393 260.473C 244.278 210.475 263.885 206.174 287.222 171.947C 304.912 146 302.528 130.742 300.184 119.795C 298.677 112.758 296.141 106.07 292.935 102.375"
       style="stroke:none; fill:#ffffff" />
    <path
       id="path1745"
       d="M 115.087 182.252C 113.093 186.666 110.02 192.697 105.558 199.674C 128.945 214.26 159.935 218.391 184.261 204.029L 178.045 187.91C 160.356 198.492 131.155 195.197 115.087 182.252"
       style="stroke:none; fill:#00ad07" />
    <path
       id="path1747"
       d="M 115.087 182.252C 113.093 186.666 110.02 192.697 105.558 199.674C 128.945 214.26 159.935 218.391 184.261 204.029L 178.045 187.91C 160.356 198.492 131.155 195.197 115.087 182.252z"
       style="stroke:#00ad07; stroke-width:0.20130000000000001; fill:none" />
    <path
       id="path1749"
       d="M 6.97739 429.858L 6.97739 397.322C 35.1741 411.714 52.4363 416.809 74.0181 416.809C 92.72 416.809 102.791 411.714 102.791 402.858C 102.791 378.072 2.95419 387.146 2.95419 332.918C 2.95419 306.811 32.294 289.539 77.762 289.539C 99.6229 289.539 119.476 293.084 144.217 301.276L 144.217 330.705C 115.733 320.967 98.7588 317.205 82.0731 317.205C 64.5232 317.205 53.3001 322.074 53.3001 329.598C 53.3001 352.396 153.137 345.977 153.137 398.654C 153.137 427.643 121.493 444.465 77.762 444.465C 43.5171 444.465 26.543 437.607 6.97715 429.858"
       style="stroke:none; fill:#000000" />
    <path
       id="path1751"
       d="M 318.449 442.477L 318.449 348.193L 269.579 395.559L 262.676 395.559L 213.806 348.193L 213.806 442.477L 168.653 442.477L 168.653 291.537L 207.965 291.537L 266.123 347.526L 324.29 291.537L 363.593 291.537L 363.593 442.477L 318.449 442.477"
       style="stroke:none; fill:#000000" />
    <path
       id="path1753"
       d="M 381.827 442.477L 381.827 291.537L 461.765 291.537C 527.897 291.537 561.899 325.836 561.899 367.227C 561.899 410.608 528.959 442.477 456.725 442.477L 381.827 442.477M 426.98 414.811L 456.455 414.811C 501.869 414.811 515.414 389.133 515.414 367.003C 515.414 341.11 498.683 319.203 455.924 319.203L 426.98 319.203L 426.98 414.811"
       style="stroke:none; fill:#000000" />
    <path
       id="path1755"
       d="M 91.4603 592.434C 89.3633 589.995 88.3104 586.792 88.3104 582.841C 88.3104 578.952 89.3721 575.776 91.5052 573.309C 93.3502 571.159 95.6451 570.079 98.3812 570.079C 102.323 570.079 105.338 572.167 107.435 576.342L 105.068 577.647C 103.475 575.047 101.243 573.751 98.3814 573.751C 96.2125 573.751 94.4395 574.596 93.0626 576.315C 91.7037 578.026 91.0196 580.194 91.0196 582.841C 91.0196 585.567 91.6944 587.782 93.0445 589.473C 94.4034 591.137 96.2303 591.965 98.5345 591.965C 101.315 591.965 103.502 590.653 105.086 588.006L 107.327 589.905C 106.193 591.921 104.915 593.387 103.484 594.305C 102.063 595.188 100.362 595.63 98.3816 595.63C 95.6009 595.63 93.2967 594.567 91.4607 592.434"
       style="stroke:none; fill:#000000" />
    <path
       id="path1757"
       d="M 122.438 595.665C 119.657 595.665 117.344 594.594 115.49 592.434C 113.375 589.995 112.322 586.801 112.322 582.878C 112.322 579.006 113.393 575.831 115.535 573.346C 117.416 571.169 119.711 570.079 122.438 570.079C 125.164 570.079 127.46 571.169 129.314 573.346C 131.446 575.831 132.508 579.006 132.508 582.878C 132.508 586.827 131.447 590.022 129.34 592.471C 127.487 594.604 125.183 595.665 122.438 595.665M 117.092 576.342C 115.715 578.053 115.031 580.231 115.031 582.876C 115.031 585.604 115.706 587.817 117.047 589.508C 118.397 591.174 120.188 592.003 122.438 592.003C 124.661 592.003 126.443 591.157 127.775 589.473C 129.116 587.782 129.791 585.585 129.791 582.876C 129.791 580.051 129.008 577.764 127.451 576.01C 126.101 574.497 124.427 573.751 122.438 573.751C 120.251 573.751 118.469 574.614 117.092 576.342"
       style="stroke:none; fill:#000000" />
    <path
       id="path1759"
       d="M 153.956 594.973L 141.932 575.182L 141.932 594.973L 139.322 594.973L 139.322 570.844L 142.553 570.844L 154.559 590.633L 154.559 570.844L 157.169 570.844L 157.169 594.973L 153.956 594.973"
       style="stroke:none; fill:#000000" />
    <path
       id="path1761"
       d="M 167.177 592.434C 165.08 589.995 164.027 586.792 164.027 582.841C 164.027 578.952 165.089 575.776 167.222 573.309C 169.067 571.159 171.362 570.079 174.098 570.079C 178.04 570.079 181.055 572.167 183.152 576.342L 180.785 577.647C 179.192 575.047 176.969 573.751 174.098 573.751C 171.929 573.751 170.156 574.596 168.779 576.315C 167.42 578.026 166.736 580.194 166.736 582.841C 166.736 585.567 167.411 587.782 168.761 589.473C 170.12 591.137 171.947 591.965 174.251 591.965C 177.032 591.965 179.219 590.653 180.803 588.006L 183.044 589.905C 181.91 591.921 180.632 593.387 179.201 594.305C 177.779 595.188 176.078 595.63 174.098 595.63C 171.318 595.63 169.013 594.567 167.177 592.434"
       style="stroke:none; fill:#000000" />
    <path
       id="path1763"
       d="M 189.902 594.973L 189.902 570.844L 205.751 570.844L 205.751 574.479L 192.512 574.479L 192.512 580.645L 201.71 580.645L 201.71 584.272L 192.512 584.272L 192.512 591.337L 206.354 591.337L 206.354 594.971L 189.902 594.971"
       style="stroke:none; fill:#000000" />
    <path
       id="path1765"
       d="M 212.24 594.973L 212.24 570.844L 214.841 570.844L 214.841 591.337L 226.982 591.337L 226.982 594.973L 212.24 594.973"
       style="stroke:none; fill:#000000" />
    <path
       id="path1767"
       d="M 231.995 594.973L 231.995 570.844L 234.596 570.844L 234.596 591.337L 246.736 591.337L 246.736 594.973L 231.995 594.973"
       style="stroke:none; fill:#000000" />
    <path
       id="path1769"
       d="M 260.192 595.665C 257.411 595.665 255.098 594.594 253.244 592.434C 251.138 589.995 250.076 586.801 250.076 582.878C 250.076 579.006 251.147 575.831 253.289 573.346C 255.17 571.169 257.474 570.079 260.192 570.079C 262.927 570.079 265.222 571.169 267.076 573.346C 269.2 575.831 270.262 579.006 270.262 582.878C 270.262 586.827 269.209 590.022 267.094 592.471C 265.24 594.604 262.936 595.665 260.191 595.665M 254.855 576.342C 253.478 578.053 252.794 580.231 252.794 582.876C 252.794 585.604 253.46 587.817 254.81 589.508C 256.151 591.174 257.951 592.003 260.192 592.003C 262.424 592.003 264.197 591.157 265.529 589.473C 266.879 587.782 267.554 585.585 267.554 582.876C 267.554 580.051 266.771 577.764 265.205 576.01C 263.864 574.497 262.19 573.751 260.192 573.751C 258.005 573.751 256.232 574.614 254.855 576.342"
       style="stroke:none; fill:#000000" />
    <path
       id="path1771"
       d="M 285.986 594.973L 285.986 570.844L 295.922 570.844C 298.658 570.844 300.827 571.969 302.411 574.21C 304.021 576.432 304.822 579.42 304.822 583.172C 304.822 586.62 303.976 589.483 302.285 591.778C 300.71 593.901 298.757 594.971 296.426 594.971L 285.986 594.971M 288.587 591.337L 296.642 591.337C 298.199 591.337 299.486 590.571 300.485 589.042C 301.492 587.485 301.996 585.495 301.996 583.075C 301.996 580.501 301.457 578.422 300.377 576.846C 299.306 575.262 297.893 574.479 296.138 574.479L 288.587 574.479L 288.587 591.337"
       style="stroke:none; fill:#000000" />
    <path
       id="path1773"
       d="M 311.492 594.973L 311.492 570.844L 327.332 570.844L 327.332 574.479L 314.093 574.479L 314.093 580.645L 323.3 580.645L 323.3 584.272L 314.093 584.272L 314.093 591.337L 327.944 591.337L 327.944 594.971L 311.492 594.971"
       style="stroke:none; fill:#000000" />
    <path
       id="path1775"
       d="M 357.923 594.973L 356.096 589.573L 345.521 589.573L 343.703 594.973L 340.859 594.973L 349.175 570.844L 352.451 570.844L 360.758 594.973L 357.923 594.973M 346.808 585.936L 354.818 585.936L 350.822 574.282L 346.808 585.936"
       style="stroke:none; fill:#000000" />
    <path
       id="path1777"
       d="M 380.738 594.973L 376.481 585.774L 368.534 585.774L 368.534 594.973L 365.933 594.973L 365.933 570.844L 378.326 570.844C 379.973 570.844 381.269 571.536 382.214 572.913C 383.15 574.272 383.618 576.108 383.618 578.448C 383.618 580.491 383.24 582.129 382.475 583.372C 381.764 584.532 380.792 585.26 379.541 585.567L 383.753 594.971L 380.738 594.971M 368.534 582.139L 377.93 582.139C 379.946 582.139 380.954 580.905 380.954 578.448C 380.954 575.803 379.865 574.479 377.696 574.479L 368.534 574.479L 368.534 582.139"
       style="stroke:none; fill:#000000" />
    <path
       id="path1779"
       d="M 394.436 594.973L 394.436 574.479L 386.921 574.479L 386.921 570.844L 404.552 570.844L 404.552 574.479L 397.037 574.479L 397.037 594.973L 394.436 594.973"
       style="stroke:none; fill:#000000" />
    <path
       id="path1781"
       d="M 409.673 594.973L 409.673 570.844L 425.522 570.844L 425.522 574.479L 412.274 574.479L 412.274 580.645L 421.481 580.645L 421.481 584.272L 412.274 584.272L 412.274 591.337L 426.125 591.337L 426.125 594.971L 409.673 594.971"
       style="stroke:none; fill:#000000" />
    <path
       id="path1783"
       d="M 432.443 594.973L 435.053 594.973L 435.053 570.844L 432.443 570.844L 432.443 594.973z"
       style="stroke:none; fill:#000000" />
    <path
       id="path1785"
       d="M 456.383 594.973L 450.047 585.243L 443.738 594.973L 440.345 594.973L 448.355 582.741L 440.624 570.844L 444.017 570.844L 450.074 580.249L 456.104 570.844L 459.496 570.844L 451.766 582.741L 459.775 594.973L 456.382 594.973"
       style="stroke:none; fill:#000000" />
    <path
       id="path1787"
       d="M 472.952 595.665C 470.171 595.665 467.858 594.594 466.004 592.434C 463.889 589.995 462.836 586.801 462.836 582.878C 462.836 579.006 463.907 575.831 466.049 573.346C 467.93 571.169 470.234 570.079 472.952 570.079C 475.687 570.079 477.974 571.169 479.836 573.346C 481.96 575.831 483.022 579.006 483.022 582.878C 483.022 586.827 481.96 590.022 479.854 592.471C 478 594.604 475.696 595.665 472.951 595.665M 467.615 576.342C 466.238 578.053 465.545 580.231 465.545 582.876C 465.545 585.604 466.22 587.817 467.561 589.508C 468.911 591.174 470.711 592.003 472.952 592.003C 475.184 592.003 476.957 591.157 478.289 589.473C 479.639 587.782 480.305 585.585 480.305 582.876C 480.305 580.051 479.522 577.764 477.965 576.01C 476.624 574.497 474.95 573.751 472.952 573.751C 470.765 573.751 468.983 574.614 467.615 576.342"
       style="stroke:none; fill:#000000" />
    <path
       id="path1789"
       d="M 52.7784 556.399L 516.782 556.399L 516.782 553.401L 52.7784 553.401L 52.7784 556.399z"
       style="stroke:none; fill:#000000" />
  </g>
</svg>
